@startuml
class Juego
class Nivel
class Tablero
class Cuadricula
class Casilla
class Personaje
class Monito
class Color
class CambioColor
class Posicion
class Tuberia
class TuberiaInicio
class TuberiaFin
class TuberiaRecta
class TuberiaCurva
class TuberiaBloqueada
class Flujo
class Agua
class Conexion
class Entrada
class Salida
class Direccion
class Obstaculo
class Fuga
class Camino
class Movimiento
class Rotacion
class Puntuacion
class Estado
class Victoria
class Derrota



Juego o--Personaje
Juego "1" *-- "*" Nivel
Nivel "1" *-- "1" Tablero
Tablero "1" *-- "*" Casilla
Tablero o-- Cuadricula

Casilla o-- Tuberia
Casilla o-- Obstaculo

Personaje o-- Monito
Monito "1"o-- "1" Color
Monito --> CambioColor
Monito --> Posicion

Tuberia o-- TuberiaInicio
Tuberia o-- TuberiaFin
Tuberia o-- TuberiaRecta
Tuberia o-- TuberiaCurva
Tuberia o-- TuberiaBloqueada

Tuberia o-- Conexion
Conexion --> Entrada
Conexion --> Salida
Conexion --> Direccion

Flujo o-- Agua
Flujo --> Camino
Flujo --> Tuberia

Fuga --> Agua

Tuberia --> Rotacion
Monito --> Movimiento

Juego o-- Puntuacion
Juego o-- Estado
Estado o-- Victoria
Estado o-- Derrota

class Monito{
    +moverse()
    +cambiarColor[4]
    +interactuar()
}

class Tuberia{
    +conectar()
}

class TuberiaInicio{
    +iniciarFlujo()
}

class TuberiaFin{
    +terminarFlujo()
}

class TuberiaRecta{
    +conectarRecto()
}

class TuberiaCurva{
    +conectarCurva()
}

class Flujo{
    +avanzar()
}

class Rotacion{
    +rotar()
}


@enduml

